# This file uses centimeters as units for non-parametric coordinates.

mtllib av_bulkhead_cut_pattern.mtl
g default
v -281.063267 -1.736630 470.000061
v -281.063267 -1.736630 450.000061
v -231.063267 -1.736630 450.000061
v -231.063267 -1.736630 470.000061
v -231.063267 0.934601 470.000061
v -281.063267 0.934601 470.000061
v -281.063267 0.934601 450.000061
v -231.063267 0.934601 450.000061
vt 0.375000 0.250000
vt 0.375000 0.500000
vt 0.625000 0.500000
vt 0.625000 0.250000
vt 0.375000 0.250000
vt 0.625000 0.250000
vt 0.375000 0.500000
vt 0.625000 0.500000
vt 0.000000 0.000000
vt 0.400000 0.000000
vt 0.400000 1.000000
vt 0.000000 1.000000
vt 0.000000 0.000000
vt 0.400000 0.000000
vt 0.400000 1.000000
vt 0.000000 1.000000
vn 0.000000 0.000000 1.000000
vn 0.000000 0.000000 1.000000
vn 0.000000 0.000000 1.000000
vn 0.000000 0.000000 1.000000
vn -1.000000 0.000000 0.000000
vn -1.000000 0.000000 0.000000
vn -1.000000 0.000000 0.000000
vn -1.000000 0.000000 0.000000
vn 1.000000 0.000000 0.000000
vn 1.000000 0.000000 0.000000
vn 1.000000 0.000000 0.000000
vn 1.000000 0.000000 0.000000
vn 0.000000 0.000000 -1.000000
vn 0.000000 0.000000 -1.000000
vn 0.000000 0.000000 -1.000000
vn 0.000000 0.000000 -1.000000
vn 0.000000 1.000000 0.000000
vn 0.000000 1.000000 0.000000
vn 0.000000 1.000000 0.000000
vn 0.000000 1.000000 0.000000
vn 0.000000 -1.000000 0.000000
vn 0.000000 -1.000000 0.000000
vn 0.000000 -1.000000 0.000000
vn 0.000000 -1.000000 0.000000
s 1
g pCube116
usemtl initialShadingGroup
f 1/1/1 4/4/2 6/5/3
f 6/5/3 4/4/2 5/6/4
s 2
f 2/2/5 1/1/6 7/7/7
f 7/7/7 1/1/6 6/5/8
s 3
f 4/4/9 3/3/10 5/6/11
f 5/6/11 3/3/10 8/8/12
s 4
f 3/3/13 2/2/14 8/8/15
f 8/8/15 2/2/14 7/7/16
s 5
f 5/9/17 8/10/18 6/12/19
f 6/12/19 8/10/18 7/11/20
s 6
f 1/13/21 2/14/22 4/16/23
f 4/16/23 2/14/22 3/15/24
