# This file uses centimeters as units for non-parametric coordinates.

mtllib pitot_mount.mtl
g default
v 160.018918 -1.500000 -167.258313
v 184.018918 -1.500000 -167.258313
v 160.018918 1.500000 -167.258313
v 184.018918 1.500000 -167.258313
v 160.018918 1.500000 -307.258298
v 184.018918 1.500000 -307.258298
v 160.018918 -1.500000 -307.258298
v 184.018918 -1.500000 -307.258298
v 175.753430 -1.500000 -167.258313
v 175.753430 -1.500000 -307.258298
v 175.753430 1.500000 -307.258298
v 175.753430 1.500000 -167.258313
v 169.241101 -1.500000 -167.258313
v 169.241101 -1.500000 -307.258298
v 169.241101 1.500000 -307.258298
v 169.241101 1.500000 -167.258313
v 160.018918 1.500000 -184.252195
v 169.241101 1.500000 -184.252195
v 175.753430 1.500000 -184.252195
v 184.018918 1.500000 -184.252195
v 184.018918 -1.500000 -184.252195
v 175.753430 -1.500000 -184.252195
v 169.241101 -1.500000 -184.252195
v 160.018918 -1.500000 -184.252195
v 160.018918 10.500000 -167.258313
v 169.241101 10.500000 -167.258313
v 169.241101 10.500000 -184.252195
v 160.018918 10.500000 -184.252195
v 175.753430 10.500000 -184.252195
v 184.018918 10.500000 -184.252195
v 175.753430 10.500000 -167.258313
v 184.018918 10.500000 -167.258313
vt 0.375000 0.000000
vt 0.625000 0.000000
vt 0.375000 0.250000
vt 0.625000 0.250000
vt 0.375000 0.500000
vt 0.625000 0.500000
vt 0.375000 0.750000
vt 0.625000 0.750000
vt 0.375000 1.000000
vt 0.625000 1.000000
vt 0.875000 0.000000
vt 0.875000 0.250000
vt 0.125000 0.000000
vt 0.125000 0.250000
vt 0.539657 0.000000
vt 0.539657 1.000000
vt 0.539657 0.750000
vt 0.539657 0.500000
vt 0.539657 0.250000
vt 0.454842 0.000000
vt 0.454842 1.000000
vt 0.454842 0.750000
vt 0.454842 0.500000
vt 0.454842 0.250000
vt 0.348143 0.250000
vt 0.375000 0.276857
vt 0.454842 0.276857
vt 0.539657 0.276857
vt 0.625000 0.276857
vt 0.651857 0.250000
vt 0.625000 0.973143
vt 0.651857 0.000000
vt 0.539657 0.973143
vt 0.454842 0.973143
vt 0.348143 0.000000
vt 0.375000 0.973143
vt 0.375000 0.250000
vt 0.454842 0.250000
vt 0.454842 0.276857
vt 0.375000 0.276857
vt 0.625000 0.276857
vt 0.539657 0.276857
vt 0.539657 0.250000
vt 0.625000 0.250000
vn 0.000000 0.000000 1.000000
vn 0.000000 0.000000 1.000000
vn 0.000000 0.000000 1.000000
vn 0.000000 0.000000 1.000000
vn 0.000000 1.000000 0.000000
vn 0.000000 1.000000 0.000000
vn 0.000000 1.000000 0.000000
vn 0.000000 1.000000 0.000000
vn 0.000000 0.000000 -1.000000
vn 0.000000 0.000000 -1.000000
vn 0.000000 0.000000 -1.000000
vn 0.000000 0.000000 -1.000000
vn 0.000000 -1.000000 0.000000
vn 0.000000 -1.000000 0.000000
vn 0.000000 -1.000000 0.000000
vn 0.000000 -1.000000 0.000000
vn 1.000000 0.000000 0.000000
vn 1.000000 0.000000 0.000000
vn 1.000000 0.000000 0.000000
vn 1.000000 0.000000 0.000000
vn -1.000000 0.000000 0.000000
vn -1.000000 0.000000 0.000000
vn -1.000000 0.000000 0.000000
vn -1.000000 0.000000 0.000000
vn 0.000000 -1.000000 0.000000
vn 0.000000 -1.000000 0.000000
vn 0.000000 0.000000 -1.000000
vn 0.000000 0.000000 -1.000000
vn 0.000000 1.000000 0.000000
vn 0.000000 1.000000 0.000000
vn 0.000000 0.000000 1.000000
vn 0.000000 0.000000 1.000000
vn 0.000000 -1.000000 0.000000
vn 0.000000 -1.000000 0.000000
vn 0.000000 0.000000 -1.000000
vn 0.000000 0.000000 -1.000000
vn 0.000000 1.000000 0.000000
vn 0.000000 1.000000 0.000000
vn 0.000000 0.000000 1.000000
vn 0.000000 0.000000 1.000000
vn 0.000000 1.000000 0.000000
vn 0.000000 1.000000 0.000000
vn 0.000000 1.000000 0.000000
vn 0.000000 1.000000 0.000000
vn 0.000000 1.000000 0.000000
vn 0.000000 1.000000 0.000000
vn 0.000000 1.000000 0.000000
vn 0.000000 1.000000 0.000000
vn 0.000000 1.000000 0.000000
vn 0.000000 1.000000 0.000000
vn 1.000000 0.000000 0.000000
vn 1.000000 0.000000 0.000000
vn 0.000000 -1.000000 0.000000
vn 0.000000 -1.000000 0.000000
vn 0.000000 -1.000000 0.000000
vn 0.000000 -1.000000 0.000000
vn -1.000000 0.000000 0.000000
vn -1.000000 0.000000 0.000000
vn 0.000000 0.000000 1.000000
vn 0.000000 0.000000 1.000000
vn 1.000000 0.000000 0.000000
vn 1.000000 0.000000 0.000000
vn 1.000000 0.000000 0.000000
vn 1.000000 0.000000 0.000000
vn 0.000000 0.000000 -1.000000
vn 0.000000 0.000000 -1.000000
vn 0.000000 0.000000 -1.000000
vn 0.000000 0.000000 -1.000000
vn -1.000000 0.000000 0.000000
vn -1.000000 0.000000 0.000000
vn 0.000000 0.000000 -1.000000
vn 0.000000 0.000000 -1.000000
vn 0.000000 0.000000 -1.000000
vn 0.000000 0.000000 -1.000000
vn -1.000000 0.000000 0.000000
vn -1.000000 0.000000 0.000000
vn -1.000000 0.000000 0.000000
vn -1.000000 0.000000 0.000000
vn 0.000000 0.000000 1.000000
vn 0.000000 0.000000 1.000000
vn 1.000000 0.000000 0.000000
vn 1.000000 0.000000 0.000000
s 1
g pCube13
usemtl initialShadingGroup
f 12/19/1 9/15/2 4/4/3
f 4/4/3 9/15/2 2/2/4
s 2
f 11/18/5 19/28/6 6/6/7
f 6/6/7 19/28/6 20/29/8
s 3
f 10/17/9 11/18/10 8/8/11
f 8/8/11 11/18/10 6/6/12
s 4
f 21/31/13 22/33/14 8/8/15
f 8/8/15 22/33/14 10/17/16
s 5
f 20/30/17 21/32/18 6/12/19
f 6/12/19 21/32/18 8/11/20
s 6
f 7/13/21 24/35/22 5/14/23
f 5/14/23 24/35/22 17/25/24
s 4
f 22/33/14 23/34/25 10/17/16
f 10/17/16 23/34/25 14/22/26
s 3
f 14/22/27 15/23/28 10/17/9
f 10/17/9 15/23/28 11/18/10
s 2
f 15/23/29 18/27/30 11/18/5
f 11/18/5 18/27/30 19/28/6
s 1
f 16/24/31 13/20/32 12/19/1
f 12/19/1 13/20/32 9/15/2
s 4
f 7/7/33 14/22/26 24/36/34
f 24/36/34 14/22/26 23/34/25
s 3
f 5/5/35 15/23/28 7/7/36
f 7/7/36 15/23/28 14/22/27
s 2
f 17/26/37 18/27/30 5/5/38
f 5/5/38 18/27/30 15/23/29
s 1
f 1/1/39 13/20/32 3/3/40
f 3/3/40 13/20/32 16/24/31
s 10
f 25/37/41 26/38/42 28/40/43
f 28/40/43 26/38/42 27/39/44
s 2
f 19/28/6 18/27/30 12/19/45
f 12/19/45 18/27/30 16/24/46
s 11
f 30/41/47 29/42/48 32/44/49
f 32/44/49 29/42/48 31/43/50
s 5
f 2/2/51 21/32/18 4/4/52
f 4/4/52 21/32/18 20/30/17
s 4
f 9/16/53 22/33/14 2/10/54
f 2/10/54 22/33/14 21/31/13
f 13/21/55 23/34/25 9/16/53
f 9/16/53 23/34/25 22/33/14
f 24/36/34 23/34/25 1/9/56
f 1/9/56 23/34/25 13/21/55
s 6
f 17/25/24 24/35/22 3/3/57
f 3/3/57 24/35/22 1/1/58
s 1
f 3/3/40 16/24/31 25/37/59
f 25/37/59 16/24/31 26/38/60
s 13
f 16/24/61 18/27/62 26/38/63
f 26/38/63 18/27/62 27/39/64
s 14
f 18/27/65 17/26/66 27/39/67
f 27/39/67 17/26/66 28/40/68
s 6
f 17/26/24 3/3/57 28/40/69
f 28/40/69 3/3/57 25/37/70
s 15
f 20/29/71 19/28/72 30/41/73
f 30/41/73 19/28/72 29/42/74
s 16
f 19/28/75 12/19/76 29/42/77
f 29/42/77 12/19/76 31/43/78
s 1
f 12/19/1 4/4/3 31/43/79
f 31/43/79 4/4/3 32/44/80
s 5
f 4/4/52 20/29/17 32/44/81
f 32/44/81 20/29/17 30/41/82
