# This file uses centimeters as units for non-parametric coordinates.

mtllib tail_servo_holder.mtl
g default
v 215.250855 474.994458 628.511292
v 215.250855 489.994458 628.511292
v 215.250855 489.994458 607.511292
v 215.250855 474.994458 607.511292
v 213.750855 474.994458 630.011292
v 213.750855 489.994458 630.011292
v 213.750855 489.994458 606.011292
v 213.750855 474.994458 606.011292
v 213.750855 488.070756 606.011292
v 213.750855 488.070756 630.011292
v 208.750855 488.070756 635.011292
v 208.750855 489.994458 635.011292
v 208.750855 489.994458 601.011292
v 208.750855 488.070756 601.011292
v 252.398160 489.994458 607.511292
v 252.398160 474.994458 607.511292
v 252.398169 474.994458 606.011292
v 252.398169 488.070756 606.011292
v 252.398204 488.070756 601.011292
v 252.398204 489.994458 601.011292
v 252.398169 489.994458 606.011292
v 252.398156 474.994458 628.511292
v 252.398156 489.994458 628.511292
v 252.398167 489.994458 630.011292
v 252.398202 489.994458 635.011292
v 252.398202 488.070756 635.011292
v 252.398167 488.070756 630.011292
v 252.398167 474.994458 630.011292
vt 0.375000 0.000000
vt 0.375000 0.250000
vt 0.375000 0.500000
vt 0.375000 0.750000
vt 0.125000 0.000000
vt 0.125000 0.250000
vt 0.375000 0.000000
vt 0.375000 0.250000
vt 0.375000 0.500000
vt 0.375000 0.750000
vt 0.125000 0.000000
vt 0.125000 0.250000
vt 0.000000 0.000000
vt 0.000000 0.361446
vt 0.000000 0.000000
vt 1.000000 0.000000
vt 1.000000 0.714286
vt 0.000000 0.714286
vt 1.000000 0.361446
vt 1.000000 0.000000
vt 0.125000 0.207230
vt 0.375000 0.542770
vt 0.375000 0.207230
vt 0.375000 0.207230
vt 0.375000 0.250000
vt 0.375000 0.500000
vt 0.375000 0.542770
vt 0.125000 0.207230
vt 0.125000 0.250000
vt 0.585723 0.500000
vt 0.842891 0.361446
vt 0.842891 0.000000
vt 0.585723 0.750000
vt 0.585723 0.750000
vt 0.585723 0.542770
vt 0.585723 0.542770
vt 0.585723 0.500000
vt 0.585723 0.500000
vt 0.584982 0.000000
vt 0.160070 0.361446
vt 0.160070 0.000000
vt 0.584982 0.250000
vt 0.584982 0.250000
vt 0.584982 0.250000
vt 0.584982 0.207230
vt 0.584982 0.207230
vt 0.584982 0.000000
vt 0.000000 0.000000
vt 1.000000 0.000000
vt 1.000000 0.513239
vt 0.000000 0.513239
vt 0.000000 1.000000
vt 0.100000 1.000000
vt 0.100000 0.000000
vt 0.000000 0.000000
vt 0.000000 0.828921
vt 0.000000 0.513239
vt 1.000000 0.513239
vt 1.000000 0.000000
vt 0.000000 0.000000
vt 0.000000 1.000000
vt 0.100000 1.000000
vt 0.100000 0.000000
vt 0.000000 0.000000
vn -1.000000 0.000000 0.000000
vn -1.000000 0.000000 0.000000
vn -1.000000 0.000000 0.000000
vn -1.000000 0.000000 0.000000
vn 0.481658 -0.205123 0.852015
vn 0.480647 -0.214701 -0.850225
vn 0.000000 -1.000000 0.000000
vn 0.000000 -1.000000 0.000000
vn 0.481658 0.205123 -0.852015
vn 0.480647 0.214701 0.850225
vn 0.000000 1.000000 -0.000000
vn 0.000000 1.000000 0.000000
vn -1.000000 0.000000 0.000000
vn -1.000000 0.000000 0.000000
vn -1.000000 0.000000 0.000000
vn -1.000000 0.000000 0.000000
vn 0.000000 -1.000000 0.000000
vn 0.000000 -1.000000 -0.000000
vn 0.000000 -1.000000 0.000000
vn 0.000000 -1.000000 -0.000000
vn 0.000000 1.000000 0.000000
vn 0.000000 1.000000 0.000000
vn 0.035379 -0.099442 0.994414
vn 0.019917 0.099484 0.994840
vn 0.038550 -0.109625 -0.993225
vn 0.000000 0.000000 -1.000000
vn 0.072078 0.000000 -0.997399
vn 0.000000 0.000000 -1.000000
vn 0.049714 -0.998764 0.000001
vn 0.045203 -0.917743 -0.394594
vn 0.000000 0.000000 -1.000000
vn 0.045203 0.917743 -0.394595
vn 0.000000 0.000000 -1.000000
vn 0.050151 0.998742 0.000000
vn 0.040147 0.099424 -0.994235
vn 0.040147 -0.099424 -0.994235
vn 0.127922 0.991784 -0.000001
vn 0.045203 0.917743 0.394594
vn 0.000000 0.000000 1.000000
vn 0.045203 -0.917743 0.394595
vn 0.000000 0.000000 1.000000
vn 0.049714 -0.998764 -0.000000
vn 0.000000 0.000000 1.000000
vn 0.000000 0.000000 1.000000
vn 0.000000 0.000000 1.000000
vn 0.000000 0.000000 1.000000
vn 0.374092 -0.927391 -0.000002
s 1
g pCube165
usemtl initialShadingGroup
f 14/28/1 11/24/2 13/29/3
f 13/29/3 11/24/2 12/25/4
s 2
f 4/5/5 1/1/6 8/11/7
f 8/11/7 1/1/6 5/7/8
f 2/2/9 3/6/10 6/8/11
f 6/8/11 3/6/10 7/12/12
f 1/15/6 4/16/5 2/18/9
f 2/18/9 4/16/5 3/17/10
s 4
f 8/11/13 5/7/14 9/21/15
f 9/21/15 5/7/14 10/23/16
s 2
f 9/21/17 10/23/18 14/28/19
f 14/28/19 10/23/18 11/24/20
f 6/8/11 7/12/12 12/25/21
f 12/25/21 7/12/12 13/29/22
f 4/13/5 16/32/23 3/14/10
f 3/14/10 16/32/23 15/31/24
f 16/33/23 4/4/5 17/34/25
f 17/34/25 4/4/5 8/10/7
f 9/22/26 18/35/27 8/10/28
f 8/10/28 18/35/27 17/34/25
f 18/35/29 9/22/17 19/36/30
f 19/36/30 9/22/17 14/27/19
f 13/26/31 20/37/32 14/27/33
f 14/27/33 20/37/32 19/36/30
f 21/38/34 20/37/32 7/9/12
f 7/9/12 20/37/32 13/26/22
f 15/30/24 21/38/34 3/3/10
f 3/3/10 21/38/34 7/9/12
f 23/41/35 22/40/36 2/20/9
f 2/20/9 22/40/36 1/19/6
f 23/42/35 2/2/9 24/43/37
f 24/43/37 2/2/9 6/8/11
f 24/43/37 6/8/11 25/44/38
f 25/44/38 6/8/11 12/25/21
f 11/24/39 26/45/40 12/25/41
f 12/25/41 26/45/40 25/44/38
f 27/46/42 26/45/40 10/23/18
f 10/23/18 26/45/40 11/24/20
s 11
f 5/7/43 28/47/44 10/23/45
f 10/23/45 28/47/44 27/46/46
s 2
f 22/39/36 28/47/47 1/1/6
f 1/1/6 28/47/47 5/7/8
f 18/48/29 19/49/30 21/51/34
f 21/51/34 19/49/30 20/50/32
f 21/52/34 15/53/24 18/56/27
f 15/53/24 16/54/23 18/56/27
f 16/54/23 17/55/25 18/56/27
f 24/57/37 25/58/38 27/60/42
f 27/60/42 25/58/38 26/59/40
f 23/61/35 24/62/37 22/64/36
f 22/64/36 24/62/37 28/63/47
