# This file uses centimeters as units for non-parametric coordinates.

mtllib trailing_edge_wedge.mtl
g default
v -531.762062 86.405120 -324.328849
v -441.762062 86.405120 -324.328849
v -441.762062 86.405120 -324.328849
v -531.762062 104.124554 -359.328849
v -441.762062 104.124554 -359.328849
v -531.762062 86.405121 -359.328849
v -441.762062 86.405121 -359.328849
vt 0.375000 0.125000
vt 0.625000 0.000000
vt 0.625000 0.250000
vt 0.375000 0.500000
vt 0.625000 0.500000
vt 0.375000 0.750000
vt 0.625000 0.750000
vt 0.375000 1.000000
vt 0.625000 1.000000
vt 0.875000 0.000000
vt 0.875000 0.250000
vt 0.125000 0.000000
vt 0.125000 0.250000
vn 0.000000 0.000000 0.000000
vn 0.000000 0.000000 0.000000
vn 0.000000 0.000000 0.000000
vn -0.000000 0.892179 0.451683
vn -0.000000 0.892179 0.451683
vn -0.000000 0.892179 0.451683
vn 0.000000 0.892179 0.451683
vn 0.000000 0.000000 -1.000000
vn 0.000000 0.000000 -1.000000
vn 0.000000 0.000000 -1.000000
vn 0.000000 0.000000 -1.000000
vn 0.000000 -1.000000 -0.000000
vn 0.000000 -1.000000 -0.000000
vn 0.000000 -1.000000 -0.000000
vn 0.000000 -1.000000 -0.000000
vn 0.000000 0.000000 0.000000
vn 1.000000 0.000000 0.000000
vn 1.000000 0.000000 0.000000
vn 1.000000 0.000000 0.000000
vn -1.000000 0.000000 0.000000
vn -1.000000 0.000000 0.000000
vn -1.000000 0.000000 0.000000
s off
g pCube49
usemtl initialShadingGroup
f 1/1/1 2/2/2 3/3/3
s 1
f 1/1/4 3/3/5 4/4/6
f 4/4/6 3/3/5 5/5/7
s 2
f 4/4/8 5/5/9 6/6/10
f 6/6/10 5/5/9 7/7/11
s 3
f 6/6/12 7/7/13 1/8/14
f 1/8/14 7/7/13 2/9/15
s 4
f 3/3/16 2/2/17 5/11/18
f 2/2/17 7/10/19 5/11/18
s off
f 6/12/20 1/1/21 4/13/22
