# This file uses centimeters as units for non-parametric coordinates.

mtllib wing_lateral_guide.mtl
g default
v -358.872131 -17.979785 -25.965241
v -278.872131 -17.979785 -25.965241
v -358.872131 18.020622 -25.965241
v -278.872131 18.020622 -25.965241
v -358.872131 18.020622 -28.965241
v -278.872131 18.020622 -28.965241
v -358.872131 -17.979785 -28.965241
v -278.872131 -17.979785 -28.965241
v -358.872131 21.020215 -25.965241
v -278.872131 21.020215 -25.965241
v -278.872131 21.020215 -28.965241
v -358.872131 21.020215 -28.965241
v -358.872131 18.020622 -38.965241
v -278.872131 18.020622 -38.965241
v -358.872131 21.020215 -38.965241
v -278.872131 21.020215 -38.965241
vt 0.375000 0.000000
vt 0.625000 0.000000
vt 0.375000 0.250000
vt 0.625000 0.250000
vt 0.375000 0.500000
vt 0.625000 0.500000
vt 0.375000 0.750000
vt 0.625000 0.750000
vt 0.375000 1.000000
vt 0.625000 1.000000
vt 0.875000 0.000000
vt 0.875000 0.250000
vt 0.125000 0.000000
vt 0.125000 0.250000
vt 0.375000 0.250000
vt 0.625000 0.250000
vt 0.625000 0.500000
vt 0.375000 0.500000
vt 0.625000 0.500000
vt 0.375000 0.500000
vt 0.375000 0.500000
vt 0.625000 0.500000
vn 0.000000 0.000000 1.000000
vn 0.000000 0.000000 1.000000
vn 0.000000 0.000000 1.000000
vn 0.000000 0.000000 1.000000
vn 0.000000 1.000000 0.000000
vn 0.000000 1.000000 0.000000
vn 0.000000 1.000000 0.000000
vn 0.000000 1.000000 0.000000
vn 0.000000 0.000000 -1.000000
vn 0.000000 0.000000 -1.000000
vn 0.000000 0.000000 -1.000000
vn 0.000000 0.000000 -1.000000
vn 0.000000 -1.000000 0.000000
vn 0.000000 -1.000000 0.000000
vn 0.000000 -1.000000 0.000000
vn 0.000000 -1.000000 0.000000
vn 1.000000 0.000000 0.000000
vn 1.000000 0.000000 0.000000
vn 1.000000 0.000000 0.000000
vn 1.000000 0.000000 0.000000
vn -1.000000 0.000000 0.000000
vn -1.000000 0.000000 0.000000
vn -1.000000 0.000000 0.000000
vn -1.000000 0.000000 0.000000
vn 0.000000 0.000000 1.000000
vn 0.000000 0.000000 1.000000
vn 1.000000 0.000000 0.000000
vn 1.000000 0.000000 0.000000
vn 0.000000 0.000000 -1.000000
vn 0.000000 0.000000 -1.000000
vn 0.000000 0.000000 -1.000000
vn 0.000000 0.000000 -1.000000
vn -1.000000 0.000000 0.000000
vn -1.000000 0.000000 0.000000
vn 0.000000 -1.000000 0.000000
vn 0.000000 -1.000000 0.000000
vn 0.000000 -1.000000 0.000000
vn 0.000000 -1.000000 0.000000
vn -1.000000 0.000000 0.000000
vn -1.000000 0.000000 0.000000
vn 0.000000 1.000000 0.000000
vn 0.000000 1.000000 0.000000
vn 1.000000 0.000000 0.000000
vn 1.000000 0.000000 0.000000
s 1
g pCube77
usemtl initialShadingGroup
f 1/1/1 2/2/2 3/3/3
f 3/3/3 2/2/2 4/4/4
s 2
f 9/15/5 10/16/6 12/18/7
f 12/18/7 10/16/6 11/17/8
s 3
f 5/5/9 6/6/10 7/7/11
f 7/7/11 6/6/10 8/8/12
s 4
f 7/7/13 8/8/14 1/9/15
f 1/9/15 8/8/14 2/10/16
s 5
f 2/2/17 8/11/18 4/4/19
f 4/4/19 8/11/18 6/12/20
s 6
f 7/13/21 1/1/22 5/14/23
f 5/14/23 1/1/22 3/3/24
s 1
f 3/3/3 4/4/4 9/15/25
f 9/15/25 4/4/4 10/16/26
s 5
f 4/4/19 6/6/20 10/16/27
f 10/16/27 6/6/20 11/17/28
s 7
f 14/19/29 13/20/30 16/22/31
f 16/22/31 13/20/30 15/21/32
s 6
f 5/5/23 3/3/24 12/18/33
f 12/18/33 3/3/24 9/15/34
s 8
f 6/6/35 5/5/36 14/19/37
f 14/19/37 5/5/36 13/20/38
s 6
f 5/5/23 12/18/33 13/20/39
f 13/20/39 12/18/33 15/21/40
s 2
f 12/18/7 11/17/8 15/21/41
f 15/21/41 11/17/8 16/22/42
s 5
f 11/17/28 6/6/20 16/22/43
f 16/22/43 6/6/20 14/19/44
