# This file uses centimeters as units for non-parametric coordinates.

mtllib wing_strap_protector.mtl
g default
v -323.169000 -1.012474 32.289733
v -283.169000 -1.012474 32.289733
v -323.169000 2.000000 32.289733
v -283.169000 2.000000 32.289733
v -323.169000 2.000000 28.289731
v -283.169000 2.000000 28.289731
v -323.169000 -1.012474 28.289731
v -283.169000 -1.012474 28.289731
v -283.169000 6.000000 28.289731
v -323.169000 6.000000 28.289731
v -323.169000 8.000407 8.289731
v -283.169000 8.000407 8.289731
v -323.169000 9.000219 8.289731
v -283.169000 9.000219 8.289731
vt 0.375000 0.000000
vt 0.625000 0.000000
vt 0.375000 0.250000
vt 0.625000 0.250000
vt 0.375000 0.500000
vt 0.625000 0.500000
vt 0.375000 0.750000
vt 0.625000 0.750000
vt 0.375000 1.000000
vt 0.625000 1.000000
vt 0.875000 0.000000
vt 0.875000 0.250000
vt 0.125000 0.000000
vt 0.125000 0.250000
vt 0.625000 0.500000
vt 0.375000 0.500000
vt 0.625000 0.500000
vt 0.375000 0.500000
vt 0.375000 0.500000
vt 0.625000 0.500000
vt 0.000000 0.000000
vt 1.000000 0.000000
vt 0.000000 1.000000
vt 0.000000 0.000000
vt 1.000000 0.000000
vt 1.000000 1.000000
vt 0.000000 0.141421
vt 1.000000 0.141421
vt 1.000000 0.000000
vt 0.000000 0.000000
vn 0.000000 0.000000 1.000000
vn 0.000000 0.000000 1.000000
vn 0.000000 0.495473 0.868623
vn 0.000000 0.495473 0.868623
vn 0.000000 0.000000 -1.000000
vn 0.000000 0.000000 -1.000000
vn 0.000000 0.000000 -1.000000
vn 0.000000 0.000000 -1.000000
vn 0.000000 -1.000000 0.000000
vn 0.000000 -1.000000 0.000000
vn 0.000000 -1.000000 0.000000
vn 0.000000 -1.000000 0.000000
vn 1.000000 0.000000 0.000000
vn 1.000000 0.000000 0.000000
vn 1.000000 0.000000 0.000000
vn 1.000000 0.000000 0.000000
vn -1.000000 0.000000 0.000000
vn -1.000000 0.000000 0.000000
vn -1.000000 0.000000 0.000000
vn -1.000000 0.000000 0.000000
vn 0.000000 0.000000 -1.000000
vn 0.000000 0.000000 -1.000000
vn 0.000000 0.000000 -1.000000
vn 0.000000 0.000000 -1.000000
vn 0.000000 -0.957821 -0.287366
vn 0.000000 -0.957821 -0.287366
vn 0.000000 -0.957821 -0.287366
vn 0.000000 -0.957821 -0.287366
vn -1.000000 0.000000 0.000000
vn -1.000000 0.000000 0.000000
vn -1.000000 0.000000 0.000000
vn 0.000000 0.959998 0.280008
vn 0.000000 0.959998 0.280008
vn 0.000000 0.988935 0.148351
vn 0.000000 0.988935 0.148351
vn 1.000000 0.000000 0.000000
vn 1.000000 0.000000 0.000000
vn 1.000000 0.000000 0.000000
s 1
g pCube76
usemtl initialShadingGroup
f 1/1/1 2/2/2 3/3/3
f 3/3/3 2/2/2 4/4/4
s 2
f 5/5/5 6/6/6 7/7/7
f 7/7/7 6/6/6 8/8/8
s 3
f 7/7/9 8/8/10 1/9/11
f 1/9/11 8/8/10 2/10/12
s 4
f 2/2/13 8/11/14 4/4/15
f 4/4/15 8/11/14 6/12/16
s 5
f 7/13/17 1/1/18 5/14/19
f 5/14/19 1/1/18 3/3/20
s 6
f 12/17/21 11/18/22 14/20/23
f 14/20/23 11/18/22 13/19/24
s 7
f 6/6/25 5/5/26 12/17/27
f 12/17/27 5/5/26 11/18/28
s 5
f 5/5/19 10/16/29 11/18/30
f 11/18/30 10/16/29 13/19/31
s 1
f 10/16/32 9/15/33 13/19/34
f 13/19/34 9/15/33 14/20/35
s 4
f 6/6/16 12/17/36 9/15/37
f 9/15/37 12/17/36 14/20/38
f 6/21/16 9/22/37 4/23/15
s 5
f 10/24/29 5/25/19 3/26/20
s 1
f 9/27/33 10/28/32 4/30/4
f 4/30/4 10/28/32 3/29/3
